<?xml version="1.0" encoding="UTF-8" standalone="no"?>
<!DOCTYPE svg PUBLIC "-//W3C//DTD SVG 1.1//EN" "http://www.w3.org/Graphics/SVG/1.1/DTD/svg11.dtd">
<svg width="100%" height="100%" viewBox="0 0 2787 778" version="1.1" xmlns="http://www.w3.org/2000/svg" xmlns:xlink="http://www.w3.org/1999/xlink" xml:space="preserve" xmlns:serif="http://www.serif.com/" style="fill-rule:evenodd;clip-rule:evenodd;stroke-linejoin:round;stroke-miterlimit:2;">
    <g id="p1" transform="matrix(1,0,0,1,352.778,574.999)">
        <g transform="matrix(661.332,0,0,661.332,0,0)">
            <path d="M0.209,0.22L0.209,-0.46L0.058,-0.46L0.058,0.22L0.209,0.22ZM0.585,-0.23C0.585,-0.284 0.574,-0.329 0.553,-0.365C0.532,-0.402 0.505,-0.429 0.472,-0.448C0.439,-0.467 0.404,-0.476 0.366,-0.476C0.326,-0.476 0.291,-0.466 0.262,-0.445C0.233,-0.425 0.211,-0.397 0.196,-0.36C0.181,-0.323 0.173,-0.28 0.173,-0.23C0.173,-0.181 0.181,-0.137 0.196,-0.1C0.211,-0.063 0.233,-0.035 0.262,-0.014C0.291,0.006 0.326,0.016 0.366,0.016C0.404,0.016 0.439,0.007 0.472,-0.012C0.505,-0.031 0.532,-0.058 0.553,-0.095C0.574,-0.132 0.585,-0.177 0.585,-0.23ZM0.426,-0.23C0.426,-0.206 0.421,-0.186 0.411,-0.169C0.401,-0.152 0.388,-0.14 0.371,-0.131C0.354,-0.122 0.336,-0.118 0.316,-0.118C0.299,-0.118 0.282,-0.122 0.265,-0.13C0.249,-0.139 0.236,-0.151 0.225,-0.168C0.214,-0.185 0.209,-0.205 0.209,-0.23C0.209,-0.255 0.214,-0.275 0.225,-0.292C0.236,-0.309 0.249,-0.321 0.265,-0.329C0.282,-0.338 0.299,-0.342 0.316,-0.342C0.336,-0.342 0.354,-0.338 0.371,-0.329C0.388,-0.32 0.401,-0.308 0.411,-0.291C0.421,-0.274 0.426,-0.254 0.426,-0.23Z" style="fill:rgb(165,255,38);fill-rule:nonzero;"/>
        </g>
        <g transform="matrix(661.332,0,0,661.332,408.042,0)">
        </g>
    </g>
    <g id="p2" transform="matrix(1,0,0,1,611.778,574.999)">
        <g transform="matrix(661.332,0,0,661.332,0,0)">
            <path d="M0.209,0.22L0.209,-0.46L0.058,-0.46L0.058,0.22L0.209,0.22ZM0.585,-0.23C0.585,-0.284 0.574,-0.329 0.553,-0.365C0.532,-0.402 0.505,-0.429 0.472,-0.448C0.439,-0.467 0.404,-0.476 0.366,-0.476C0.326,-0.476 0.291,-0.466 0.262,-0.445C0.233,-0.425 0.211,-0.397 0.196,-0.36C0.181,-0.323 0.173,-0.28 0.173,-0.23C0.173,-0.181 0.181,-0.137 0.196,-0.1C0.211,-0.063 0.233,-0.035 0.262,-0.014C0.291,0.006 0.326,0.016 0.366,0.016C0.404,0.016 0.439,0.007 0.472,-0.012C0.505,-0.031 0.532,-0.058 0.553,-0.095C0.574,-0.132 0.585,-0.177 0.585,-0.23ZM0.426,-0.23C0.426,-0.206 0.421,-0.186 0.411,-0.169C0.401,-0.152 0.388,-0.14 0.371,-0.131C0.354,-0.122 0.336,-0.118 0.316,-0.118C0.299,-0.118 0.282,-0.122 0.265,-0.13C0.249,-0.139 0.236,-0.151 0.225,-0.168C0.214,-0.185 0.209,-0.205 0.209,-0.23C0.209,-0.255 0.214,-0.275 0.225,-0.292C0.236,-0.309 0.249,-0.321 0.265,-0.329C0.282,-0.338 0.299,-0.342 0.316,-0.342C0.336,-0.342 0.354,-0.338 0.371,-0.329C0.388,-0.32 0.401,-0.308 0.411,-0.291C0.421,-0.274 0.426,-0.254 0.426,-0.23Z" style="fill:rgb(208,255,179);fill-rule:nonzero;"/>
        </g>
        <g transform="matrix(661.332,0,0,661.332,408.042,0)">
        </g>
    </g>
    <g id="a" transform="matrix(1,0,0,1,34.778,567.999)">
        <g transform="matrix(661.332,0,0,661.332,0,0)">
            <path d="M0.176,-0.144C0.176,-0.155 0.179,-0.165 0.184,-0.172C0.189,-0.18 0.197,-0.186 0.208,-0.19C0.219,-0.194 0.233,-0.196 0.251,-0.196C0.274,-0.196 0.296,-0.193 0.317,-0.186C0.338,-0.18 0.357,-0.171 0.373,-0.159L0.373,-0.226C0.365,-0.235 0.353,-0.243 0.337,-0.251C0.321,-0.259 0.302,-0.266 0.279,-0.271C0.257,-0.276 0.232,-0.279 0.204,-0.279C0.147,-0.279 0.102,-0.266 0.071,-0.24C0.04,-0.215 0.024,-0.18 0.024,-0.136C0.024,-0.105 0.031,-0.078 0.046,-0.056C0.061,-0.034 0.081,-0.017 0.106,-0.006C0.131,0.005 0.159,0.01 0.188,0.01C0.217,0.01 0.245,0.005 0.27,-0.005C0.295,-0.016 0.316,-0.031 0.332,-0.051C0.348,-0.072 0.356,-0.097 0.356,-0.126L0.34,-0.186C0.34,-0.165 0.335,-0.147 0.326,-0.132C0.317,-0.117 0.305,-0.106 0.29,-0.099C0.275,-0.092 0.259,-0.088 0.242,-0.088C0.23,-0.088 0.219,-0.09 0.209,-0.094C0.199,-0.099 0.191,-0.105 0.185,-0.113C0.179,-0.122 0.176,-0.132 0.176,-0.144ZM0.109,-0.319C0.116,-0.323 0.126,-0.328 0.141,-0.334C0.156,-0.341 0.173,-0.346 0.192,-0.351C0.212,-0.356 0.232,-0.358 0.253,-0.358C0.267,-0.358 0.279,-0.357 0.29,-0.354C0.301,-0.351 0.311,-0.347 0.318,-0.341C0.325,-0.335 0.331,-0.328 0.334,-0.319C0.338,-0.311 0.34,-0.301 0.34,-0.29L0.34,-0L0.485,-0L0.485,-0.324C0.485,-0.356 0.476,-0.383 0.457,-0.405C0.438,-0.427 0.413,-0.444 0.381,-0.455C0.349,-0.467 0.313,-0.473 0.272,-0.473C0.229,-0.473 0.189,-0.467 0.152,-0.456C0.115,-0.445 0.084,-0.433 0.058,-0.42L0.109,-0.319Z" style="fill:rgb(165,255,38);fill-rule:nonzero;"/>
        </g>
        <g transform="matrix(661.332,0,0,661.332,356.458,0)">
        </g>
    </g>
    <g id="titud" transform="matrix(1.5873,0,0,1.58716,995.746,575.319)">
        <g transform="matrix(416.667,0,0,416.667,0,0)">
            <path d="M0.005,-0.46L0.005,-0.335L0.313,-0.335L0.313,-0.46L0.005,-0.46ZM0.086,-0.62L0.086,-0L0.231,-0L0.231,-0.62L0.086,-0.62Z" style="fill:rgb(165,255,38);fill-rule:nonzero;"/>
        </g>
        <g transform="matrix(416.667,0,0,416.667,132.5,0)">
            <path d="M0.05,-0.633C0.05,-0.609 0.059,-0.589 0.076,-0.574C0.093,-0.559 0.114,-0.551 0.138,-0.551C0.163,-0.551 0.183,-0.559 0.2,-0.574C0.217,-0.589 0.226,-0.609 0.226,-0.633C0.226,-0.657 0.217,-0.676 0.2,-0.691C0.183,-0.706 0.163,-0.714 0.138,-0.714C0.114,-0.714 0.093,-0.706 0.076,-0.691C0.059,-0.676 0.05,-0.657 0.05,-0.633ZM0.065,-0.46L0.065,-0L0.211,-0L0.211,-0.46L0.065,-0.46Z" style="fill:rgb(165,255,38);fill-rule:nonzero;"/>
        </g>
        <g transform="matrix(416.667,0,0,416.667,247.5,0)">
            <path d="M0.005,-0.46L0.005,-0.335L0.313,-0.335L0.313,-0.46L0.005,-0.46ZM0.086,-0.62L0.086,-0L0.231,-0L0.231,-0.62L0.086,-0.62Z" style="fill:rgb(165,255,38);fill-rule:nonzero;"/>
        </g>
        <g transform="matrix(416.667,0,0,416.667,380,0)">
            <path d="M0.217,-0.18L0.217,-0.46L0.059,-0.46L0.059,-0.164C0.059,-0.109 0.072,-0.066 0.098,-0.035C0.125,-0.004 0.167,0.011 0.224,0.011C0.258,0.011 0.286,0.004 0.309,-0.01C0.332,-0.025 0.35,-0.044 0.364,-0.069L0.364,-0L0.515,-0L0.515,-0.46L0.364,-0.46L0.364,-0.18C0.364,-0.162 0.361,-0.147 0.354,-0.134C0.347,-0.121 0.338,-0.112 0.326,-0.105C0.315,-0.098 0.301,-0.095 0.284,-0.095C0.259,-0.095 0.242,-0.102 0.232,-0.117C0.222,-0.132 0.217,-0.153 0.217,-0.18Z" style="fill:rgb(165,255,38);fill-rule:nonzero;"/>
        </g>
        <g transform="matrix(416.667,0,0,416.667,619.583,0)">
            <path d="M0.408,-0.78L0.408,-0L0.559,-0L0.559,-0.78L0.408,-0.78ZM0.032,-0.23C0.032,-0.179 0.042,-0.135 0.063,-0.099C0.084,-0.064 0.112,-0.037 0.145,-0.018C0.178,0.001 0.214,0.01 0.251,0.01C0.29,0.01 0.324,0 0.353,-0.019C0.383,-0.038 0.407,-0.066 0.424,-0.102C0.441,-0.138 0.45,-0.181 0.45,-0.23C0.45,-0.28 0.441,-0.323 0.424,-0.358C0.407,-0.394 0.383,-0.422 0.353,-0.441C0.324,-0.46 0.29,-0.47 0.251,-0.47C0.214,-0.47 0.178,-0.461 0.145,-0.442C0.112,-0.423 0.084,-0.396 0.063,-0.361C0.042,-0.326 0.032,-0.282 0.032,-0.23ZM0.191,-0.23C0.191,-0.254 0.196,-0.275 0.206,-0.292C0.216,-0.31 0.229,-0.324 0.246,-0.333C0.263,-0.343 0.281,-0.348 0.301,-0.348C0.318,-0.348 0.335,-0.343 0.351,-0.334C0.368,-0.325 0.381,-0.311 0.392,-0.293C0.403,-0.276 0.408,-0.255 0.408,-0.23C0.408,-0.205 0.403,-0.184 0.392,-0.166C0.381,-0.149 0.368,-0.135 0.351,-0.126C0.335,-0.117 0.318,-0.112 0.301,-0.112C0.281,-0.112 0.263,-0.117 0.246,-0.126C0.229,-0.136 0.216,-0.15 0.206,-0.167C0.196,-0.185 0.191,-0.206 0.191,-0.23Z" style="fill:rgb(165,255,38);fill-rule:nonzero;"/>
        </g>
        <g transform="matrix(416.667,0,0,416.667,876.667,0)">
        </g>
    </g>
    <g id="e" transform="matrix(0.866025,-0.5,0.5,0.866025,2474.31,643.484)">
        <g transform="matrix(661.332,0,0,661.332,0,0)">
            <path d="M0.293,0.01C0.352,0.01 0.401,-0.001 0.442,-0.024C0.483,-0.047 0.516,-0.081 0.54,-0.126L0.405,-0.159C0.394,-0.139 0.378,-0.124 0.359,-0.114C0.34,-0.104 0.318,-0.099 0.291,-0.099C0.268,-0.099 0.248,-0.104 0.232,-0.114C0.216,-0.125 0.204,-0.14 0.196,-0.16C0.188,-0.18 0.184,-0.204 0.184,-0.232C0.185,-0.263 0.189,-0.288 0.196,-0.308C0.204,-0.329 0.216,-0.344 0.231,-0.354C0.246,-0.364 0.265,-0.369 0.288,-0.369C0.306,-0.369 0.322,-0.365 0.335,-0.357C0.348,-0.349 0.359,-0.338 0.366,-0.323C0.373,-0.308 0.377,-0.291 0.377,-0.271C0.377,-0.266 0.376,-0.26 0.373,-0.253C0.371,-0.246 0.368,-0.241 0.365,-0.236L0.401,-0.282L0.117,-0.282L0.117,-0.198L0.537,-0.198C0.538,-0.203 0.539,-0.208 0.539,-0.215L0.539,-0.237C0.539,-0.286 0.529,-0.328 0.51,-0.363C0.491,-0.398 0.463,-0.424 0.426,-0.442C0.389,-0.461 0.344,-0.47 0.291,-0.47C0.238,-0.47 0.191,-0.46 0.152,-0.441C0.113,-0.422 0.084,-0.394 0.063,-0.358C0.042,-0.322 0.032,-0.279 0.032,-0.23C0.032,-0.181 0.043,-0.139 0.064,-0.103C0.085,-0.067 0.115,-0.039 0.154,-0.019C0.193,0 0.24,0.01 0.293,0.01Z" style="fill:rgb(165,255,38);fill-rule:nonzero;"/>
        </g>
        <g transform="matrix(661.332,0,0,661.332,378.943,0)">
        </g>
    </g>
</svg>
